<svg xmlns="http://www.w3.org/2000/svg" viewBox="0 0 1000 1000"><defs><style>.cls-1{fill:#0f4c81;}.cls-2,.cls-3{fill:#fff;}.cls-3{font-size:169.99px;font-family:Kanit-Bold, Kanit;font-weight:700;}.cls-4{letter-spacing:-0.02em;}.cls-5{letter-spacing:-0.04em;}.cls-6{letter-spacing:-0.02em;}</style></defs><g id="Layer_2" data-name="Layer 2"><g id="Layer_1-2" data-name="Layer 1"><rect class="cls-1" width="1000" height="1000"/><path class="cls-2" d="M507.94,638.71l25.76-28.38a1.48,1.48,0,0,1,.83-.45C643.05,592,717.71,489.08,701.51,380c-14.25-91.23-90-162.59-181.13-171.19a1.45,1.45,0,0,1-1.3-1.23l-4.16-28.28a1.45,1.45,0,0,0-2.51-.77L485.74,207.8a1.43,1.43,0,0,1-.93.46c-4.57.46-9.16.92-14.18,1.38h-.1c-100.18,15.29-172.2,101.64-172.2,199.91a219.66,219.66,0,0,0,2.38,30.54c15.21,99.31,100.44,172.59,199.64,172.73a1.45,1.45,0,0,1,1.43,1.23l3.64,23.9A1.46,1.46,0,0,0,507.94,638.71Zm-2.17-438.77a1.46,1.46,0,0,1,2.52.74l2.67,16a1.44,1.44,0,0,0,1.25,1.21l2.74.34c89.23,6.2,163.66,74.91,177,163.66,15,98.59-48,191.17-142.3,215.94a1.46,1.46,0,0,1-1.47-2.38l30-33.32a1.45,1.45,0,0,0-.33-2.22l-38.59-23.16a1.43,1.43,0,0,1-.43-2.07c2.59-.77,5.17-1.6,7.69-2.53v.38l6.05-2.57c3.76-1.6,7.37-3.41,10.93-5.32l.7-.4q5.26-2.88,10.18-6.19l.22-.14a130.29,130.29,0,0,0,46.82-56.51c.24-.55.48-1.11.71-1.66,1.47-3.56,2.83-7.17,4-10.88,0-.13.1-.27.14-.41,1.17-3.76,2.13-7.59,3-11.48.21-1,.36-1.91.54-2.87q.84-4.46,1.38-9c.13-1.14.27-2.26.38-3.4.35-3.94.6-7.91.6-11.94,0-4.19-.24-8.36-.64-12.49-.12-1.28-.33-2.53-.49-3.79-.36-2.85-.76-5.68-1.3-8.49-.27-1.42-.61-2.81-.92-4.21-.6-2.63-1.26-5.24-2-7.83q-.62-2.06-1.29-4.08c-.39-1.2-.71-2.43-1.14-3.63l-2.91-8-.25.36c-1.14-2.59-2.38-5.12-3.68-7.63l.11-.16-1.26-2.3c-.44-.82-.89-1.61-1.34-2.4l-.49-.7c-1.44-2.51-3-4.94-4.55-7.31l-.38-.55q-2.46-3.65-5.15-7.08l-.44-.65c-.46-.59-.93-1.17-1.39-1.71l-.48-.57c-.71-.85-1.44-1.68-2.16-2.51l-1.44-1.67-.56-.54a130.81,130.81,0,0,0-12.49-12l-.64-.61-.53-.37Q580.74,306,577,303.3l.06-.09-3.63-2.4c-.71-.47-1.45-.87-2.16-1.32l-1.38-.89-.66-.46a.47.47,0,0,1-.09-.06h0c-.75-.46-1.51-.91-2.27-1.34h0l-.5-.24c-.8-.46-1.6-.91-2.42-1.35l-.68-.35-.24-.12c-.36-.19-.69-.4-1-.58L562,294l-4.53-2.15-.37-.17-1.51-.67-1.69-.74-1.48-.66-.19-.07c-.93-.4-1.88-.79-2.82-1.16l-.38-.18-.38-.12c-.6-.24-1.22-.45-1.82-.67-2-.76-4.06-1.45-6.1-2.1l-.7-.21-1.39-.44c-1.21-.36-2.43-.69-3.64-1l-.46-.15-.51-.1c-1.93-.5-3.86-.95-5.81-1.36L528,282l-.66-.11q-3-.61-6-1.07l-1.46-.21-1.34-.18h-.06l-.5-.1c-.44-.06-.91-.12-1.41-.17l-1-.11-.63-.07h0l-.31,0-3.24-.28H511l-.37,0-.38,0-.87-.05-.84-.06h-.3c-1-.05-2-.09-3-.12h-.69c-1,0-2,0-3,0-2.82,0-5.62.12-8.41.29l-2,.16-.53,0-35.67-21a1.45,1.45,0,0,1-.34-2.23Zm-11.68,330.8-5.38-.94c-3.31-.32-6.59-.78-9.82-1.38V468.14L398.15,348.55c1.89-3.11,3.91-6.17,6.1-9.13a122.4,122.4,0,0,1,30.12-28.78l68.88,103.8,67.64-101.92A120.06,120.06,0,0,1,605.8,351.8L526.55,470.39l-.74,1.09v56.14l-1.32.28-22.72,3.27-3.8-.06c-.93-.1-1.87-.17-2.8-.2-.23,0-.45-.09-.67-.15A1.16,1.16,0,0,0,494.09,530.74Zm-37.45-62.6L388.8,367.67q2.06-5.37,4.64-10.55L470.2,470.8v55.67A118.85,118.85,0,0,1,456.64,522Zm-8.69,50a120,120,0,0,1-62.59-140L448,470.79Zm45.44-227.56,1.05-.17,6.48-.68a69.86,69.86,0,0,1,7.52,0,105.1,105.1,0,0,0,12.42,1.14l-.62-.18a2.93,2.93,0,0,0,.59.11,1.57,1.57,0,0,0,.29.08h-.26l11.27,3.22a120.87,120.87,0,0,1,15.74,5.47L503.25,366.8l-45.37-68.38a118.84,118.84,0,0,1,25.1-6.71,60.65,60.65,0,0,1,8.11-1l1.88-.19A1.17,1.17,0,0,0,493.39,290.57Zm9.86,91.93,52.58-79.2q4,2.07,7.82,4.41l-60.4,91-61.47-92.65c2.61-1.49,5.26-2.9,8-4.19Zm44,84.54-.75,1.1V521.4a119.43,119.43,0,0,1-12,4.09V474.12l75.76-113.37q1.79,4,3.29,8.11Zm69.61-87.57a121.86,121.86,0,0,1,2.57,12.44c8.29,53.3-18.71,103-64.23,125.6V470.8ZM512.13,617.38l-1.79-12.49a1.44,1.44,0,0,0-1.29-1.24l-3.56-.36h-.17C409,605.63,325,535,310.26,439.62c-15.75-105,56.78-203.74,161.75-220h0a1.46,1.46,0,0,1,1.14,2.43l-32.9,36.32a1.46,1.46,0,0,0,.34,2.24l34.25,20a1.44,1.44,0,0,1,.71,1.17l-.26.05c-3.18.64-6.32,1.42-9.43,2.31l-1.09.32c-.78.23-1.56.46-2.35.71-1.57.49-3.14,1-4.7,1.59l-1.63.58c-1,.37-2,.77-3,1.16s-2.07.85-3.11,1.29c-.56.25-1.13.46-1.69.71l-4.68,2.09.1.16-.85.42c-1.71.86-3.4,1.75-5.08,2.7-1.91,1.06-3.81,2.13-5.68,3.3l-3.76,2.37.05.08a131.38,131.38,0,0,0-19.14,15.79h0l-1.1,1.13c-.73.73-1.44,1.48-2.26,2.37l-1.07,1.24c-1.09,1.2-2.14,2.42-3.18,3.66-.54.63-1.09,1.25-1.61,1.9l-.53.62,0,0,0,0c-.18.24-.38.46-.56.69l0,0-.79,1-.73,1L396,333l0,0-.42.59-.06,0-.53.73.06,0-.44.63-.06,0-.76,1.14c-.54.81-1.1,1.6-1.63,2.41s-.86,1.4-1.29,2.1l-1.37,2.1.05,0c-.14.23-.29.46-.43.7l0,0-.92,1.59a.05.05,0,0,0,0,0l-.09.14-1.27,2.19,0,.06c-1.81,3.3-3.41,6.69-4.92,10.14l-.22-.34-2.91,8c-.34.95-.57,1.91-.89,2.85-.68,2-1.34,4.05-1.92,6.1s-1,4-1.49,6c-.43,1.83-.88,3.66-1.22,5.52-.47,2.47-.79,5-1.1,7.47-.19,1.47-.44,2.92-.58,4.41-.38,4-.59,8.1-.59,12.2a129.69,129.69,0,0,0,38.22,92.29q4.55,4.53,9.45,8.56c1.81,1.49,3.72,2.81,5.59,4.18,1.48,1.1,2.92,2.28,4.45,3.31,2.82,1.9,5.74,3.6,8.68,5.27.66.37,1.28.81,1.95,1.17,3.19,1.74,6.47,3.27,9.79,4.73.48.2.92.47,1.41.67l.27.12,1.27.54,4.51,1.91v-.3a129.15,129.15,0,0,0,13.55,4.13v.19h.07v0l3.45.73.14,0c.36.08.73.13,1.09.21.78.16,1.57.3,2.36.45,2.24.42,4.48.78,6.74,1.08l1.18.2v0l.82.11v0l.44,0,1.65.19c.48,0,1,.07,1.46.11,4,.37,8,.58,12,.58,1.1,0,2.22,0,3.53,0h0v0c1.09,0,2.16,0,3.25-.09v0l.53,0,.35,0c.77-.05,1.51-.08,2.39-.15,1-.08,2.06-.18,3.31-.29l.92-.12c.77-.09,1.53-.2,2.3-.3l3.31-.42,1.33-.22,39.74,23.73a1.45,1.45,0,0,1,.33,2.22l-48.26,53.63A1.45,1.45,0,0,1,512.13,617.38Z"/><text class="cls-3" transform="translate(30.42 767.52)"><tspan class="cls-4">Y</tspan><tspan x="115.93" y="0">ENI</tspan><tspan class="cls-5" x="372.1" y="0">K</tspan><tspan x="480.55" y="0">A</tspan><tspan class="cls-6" x="606.85" y="0">R</tspan><tspan x="712.24" y="0">GO</tspan></text></g></g></svg>