<svg xmlns="http://www.w3.org/2000/svg" viewBox="0 0 843.95 275.89"><defs><style>.cls-1,.cls-2{fill:#0f4c81;}.cls-2{font-size:101.69px;font-family:Kanit-Bold, Kanit;font-weight:700;}.cls-3{letter-spacing:-0.02em;}.cls-4{letter-spacing:-0.04em;}.cls-5{letter-spacing:0em;}.cls-6{letter-spacing:-0.01em;}</style></defs><g id="Layer_2" data-name="Layer 2"><g id="Layer_1-2" data-name="Layer 1"><path class="cls-1" d="M125.4,275.6l15.41-17a.88.88,0,0,1,.5-.27c64.92-10.7,109.59-72.27,99.89-137.54C232.68,66.23,187.35,23.54,132.84,18.4a.87.87,0,0,1-.78-.74L129.58.74a.87.87,0,0,0-1.51-.45L112.12,17.8a.84.84,0,0,1-.56.28c-2.73.28-5.48.55-8.48.82H103A121.34,121.34,0,0,0,0,138.51a130.61,130.61,0,0,0,1.43,18.27C10.52,216.19,61.52,260,120.86,260.11a.85.85,0,0,1,.85.74l2.18,14.3A.88.88,0,0,0,125.4,275.6ZM124.1,13.11a.87.87,0,0,1,1.51.44l1.59,9.57a.88.88,0,0,0,.75.72l1.64.21C183,27.76,227.5,68.86,235.5,122c9,59-28.73,114.37-85.14,129.19a.87.87,0,0,1-.87-1.43l17.93-19.93a.87.87,0,0,0-.2-1.33L144.14,214.6a.86.86,0,0,1-.26-1.24c1.55-.46,3.09-1,4.6-1.51v.22l3.62-1.53c2.25-1,4.41-2,6.54-3.18l.42-.25c2.1-1.14,4.13-2.38,6.09-3.7l.13-.08a78,78,0,0,0,28-33.81c.14-.33.29-.66.42-1,.88-2.13,1.69-4.29,2.39-6.51,0-.08.05-.16.08-.25.7-2.25,1.28-4.54,1.77-6.86.12-.57.22-1.15.32-1.72.34-1.78.61-3.57.83-5.37.08-.68.16-1.36.22-2,.22-2.35.36-4.73.36-7.14s-.14-5-.38-7.47c-.07-.77-.2-1.51-.29-2.27-.22-1.7-.46-3.4-.78-5.08-.16-.85-.36-1.68-.55-2.51-.36-1.58-.76-3.14-1.21-4.69-.24-.82-.5-1.63-.77-2.44s-.42-1.45-.68-2.17l-1.74-4.8-.15.22c-.68-1.55-1.43-3.07-2.21-4.57l.07-.09-.75-1.38c-.27-.48-.53-1-.81-1.43l-.29-.42c-.86-1.5-1.77-3-2.72-4.37-.08-.12-.15-.23-.23-.33q-1.47-2.19-3.08-4.24l-.26-.39-.83-1-.29-.34c-.42-.51-.86-1-1.29-1.5l-.86-1-.34-.32a77.84,77.84,0,0,0-7.47-7.18l-.38-.36-.32-.23q-2.12-1.73-4.35-3.32l0-.06-2.18-1.43c-.42-.28-.86-.52-1.29-.79l-.82-.53-.4-.28,0,0h0c-.45-.27-.9-.54-1.36-.8h0l-.3-.14c-.48-.28-1-.54-1.45-.81l-.4-.21-.15-.07c-.21-.12-.41-.24-.63-.34l.05-.08L155,68.06l-.22-.1-.9-.4-1-.44c-.3-.13-.59-.27-.89-.39l-.11,0L150.22,66l-.22-.11-.23-.07c-.36-.15-.73-.27-1.1-.4-1.2-.45-2.42-.87-3.64-1.26l-.42-.12-.83-.27c-.72-.21-1.45-.41-2.18-.6l-.27-.09L141,63c-1.15-.3-2.31-.57-3.47-.81l-.13,0-.4-.07c-1.19-.24-2.4-.46-3.61-.64l-.87-.13-.8-.1h0l-.3,0-.84-.1L130,61l-.38,0h0l-.19,0-1.93-.17H127l-.22,0c-.18,0-.35,0-.52,0l-.51,0h-.18l-1.77-.07h-.42l-1.81,0c-1.69,0-3.37.07-5,.17l-1.22.1-.32,0L93.69,48.28a.87.87,0,0,1-.2-1.33Zm-7,197.89-3.22-.56c-2-.19-3.94-.47-5.87-.82V173.55L59.72,102c1.13-1.86,2.34-3.69,3.65-5.46a73.07,73.07,0,0,1,18-17.22l41.2,62.1,40.47-61A71.75,71.75,0,0,1,183.94,104l-47.41,71-.44.65v33.59l-.79.16-13.59,2-2.27,0c-.56-.06-1.12-.1-1.68-.11l-.4-.09A.72.72,0,0,0,117.11,211Zm-22.4-37.45-40.58-60.1c.82-2.14,1.74-4.25,2.77-6.31l45.92,68v33.31a70.63,70.63,0,0,1-8.11-2.68Zm-5.2,29.91a71.79,71.79,0,0,1-37.44-83.78l37.44,55.46ZM116.7,67.32l.62-.1,3.88-.4a39.74,39.74,0,0,1,4.5,0,62.44,62.44,0,0,0,7.43.68l-.37-.1a2,2,0,0,0,.35.06l.18.05h-.16l6.74,1.93a73.26,73.26,0,0,1,9.42,3.27l-26.7,40.22L95.45,72a71,71,0,0,1,15-4,35.84,35.84,0,0,1,4.85-.58l1.13-.11A.7.7,0,0,0,116.7,67.32Zm5.89,55,31.46-47.38q2.4,1.23,4.68,2.64L122.59,132,85.82,76.6c1.56-.89,3.15-1.73,4.77-2.5Zm26.34,50.57-.45.66v31.87a73.21,73.21,0,0,1-7.19,2.45V177.13l45.33-67.82q1.06,2.39,2,4.85Zm41.64-52.38a72.64,72.64,0,0,1,1.54,7.44c5,31.89-11.19,61.63-38.42,75.14v-28ZM127.9,262.84l-1.06-7.48a.88.88,0,0,0-.78-.74l-2.13-.21h-.09C66.2,255.81,16,213.57,7.14,156.49-2.28,93.7,41.1,34.61,103.9,24.9h0a.87.87,0,0,1,.68,1.45L84.93,48.09a.87.87,0,0,0,.2,1.33l20.49,12a.84.84,0,0,1,.42.7l-.15,0q-2.85.59-5.64,1.39l-.65.18-1.41.43c-.94.29-1.88.62-2.81,1l-1,.35c-.61.22-1.2.46-1.8.69s-1.24.51-1.86.78c-.34.14-.68.27-1,.42l-2.8,1.25.06.1-.51.25c-1,.51-2,1-3,1.61s-2.28,1.27-3.39,2L77.8,73.93l0,0a78.84,78.84,0,0,0-11.45,9.45h0l-.66.67c-.44.44-.87.89-1.36,1.42l-.64.75c-.65.71-1.28,1.44-1.9,2.18-.32.38-.65.76-1,1.14l-.32.37,0,0h0c-.1.14-.22.27-.33.41l0,0-.47.62-.43.58-.82,1.09,0,0-.25.36,0,0-.32.44,0,0-.27.38,0,0-.46.69c-.32.48-.65,1-1,1.44s-.51.84-.77,1.25l-.82,1.26,0,0c-.08.14-.17.28-.26.42h0l-.55,1a0,0,0,0,0,0,0l-.05.08L53,101.31l0,0c-1.08,2-2,4-2.94,6.07l-.13-.2L48.17,112c-.2.56-.34,1.14-.53,1.7-.41,1.21-.8,2.42-1.15,3.65s-.61,2.38-.89,3.58-.53,2.19-.73,3.3c-.28,1.48-.47,3-.66,4.47-.11.88-.26,1.75-.35,2.64-.22,2.42-.35,4.84-.35,7.29a77.6,77.6,0,0,0,22.87,55.22c1.81,1.81,3.69,3.51,5.65,5.12,1.08.89,2.23,1.68,3.34,2.5.89.66,1.75,1.36,2.66,2,1.69,1.14,3.44,2.16,5.2,3.15.4.23.77.49,1.17.7,1.91,1,3.87,2,5.85,2.83.29.12.55.28.84.4l.17.07.76.33,2.69,1.14v-.18a76.55,76.55,0,0,0,8.11,2.47v.11h.05l2.06.44.08,0,.65.12,1.41.27c1.34.25,2.69.47,4,.65l.7.12v0l.49.07v0l.26,0,1,.11.88.07c2.37.22,4.76.34,7.16.34.66,0,1.32,0,2.11,0h0v0c.65,0,1.3,0,1.94-.06h0l.32,0h.21c.46,0,.91-.05,1.43-.1s1.24-.1,2-.17l.55-.07,1.38-.18,2-.25.79-.13,23.78,14.19a.88.88,0,0,1,.2,1.33L129.41,263.3A.88.88,0,0,1,127.9,262.84Z"/><text class="cls-2" transform="translate(279.65 170.83)"><tspan class="cls-3">Y</tspan><tspan x="69.36" y="0">ENI</tspan><tspan class="cls-4" x="222.61" y="0">K</tspan><tspan class="cls-5" x="287.49" y="0">A</tspan><tspan class="cls-6" x="363.05" y="0">R</tspan><tspan x="426.1" y="0">GO</tspan></text></g></g></svg>