<svg xmlns="http://www.w3.org/2000/svg" viewBox="0 0 701.47 486.04"><defs><style>.cls-1,.cls-2{fill:#fff;}.cls-2{font-size:126.42px;font-family:Kanit-Bold, Kanit;font-weight:700;letter-spacing:-0.02em;}.cls-3{letter-spacing:0em;}.cls-4{letter-spacing:-0.05em;}.cls-5{letter-spacing:0em;}.cls-6{letter-spacing:-0.02em;}.cls-7{letter-spacing:0em;}</style></defs><g id="Layer_2" data-name="Layer 2"><g id="Layer_1-2" data-name="Layer 1"><path class="cls-1" d="M355.12,342.6l19.16-21.11a1.05,1.05,0,0,1,.62-.33c80.7-13.31,136.22-89.84,124.18-171C488.48,82.33,432.13,29.27,364.37,22.87a1.07,1.07,0,0,1-1-.91l-3.1-21a1.08,1.08,0,0,0-1.87-.58L338.61,22.13a1.07,1.07,0,0,1-.69.35c-3.4.34-6.81.68-10.55,1h-.07A150.82,150.82,0,0,0,199.24,172.18,163.86,163.86,0,0,0,201,194.89c11.31,73.86,74.7,128.35,148.46,128.46a1.07,1.07,0,0,1,1.07.91L353.25,342A1.08,1.08,0,0,0,355.12,342.6ZM353.51,16.29a1.08,1.08,0,0,1,1.87.55l2,11.9a1.09,1.09,0,0,0,.94.9l2,.25C426.69,34.5,482.05,85.6,492,151.6c11.17,73.32-35.71,142.17-105.83,160.59a1.08,1.08,0,0,1-1.09-1.77l22.3-24.78a1.07,1.07,0,0,0-.25-1.65l-28.7-17.22a1.07,1.07,0,0,1-.32-1.54c1.93-.57,3.85-1.19,5.72-1.88v.28l4.5-1.91c2.8-1.19,5.49-2.54,8.13-4l.52-.3q3.92-2.13,7.57-4.6l.16-.1a96.82,96.82,0,0,0,34.82-42c.18-.41.36-.82.53-1.23,1.09-2.65,2.1-5.34,3-8.09,0-.1.07-.2.11-.31.86-2.8,1.58-5.65,2.2-8.53.15-.71.27-1.43.4-2.14q.63-3.31,1-6.68c.1-.85.21-1.68.28-2.53.27-2.93.45-5.88.45-8.88s-.18-6.21-.47-9.28c-.09-1-.25-1.88-.36-2.82-.27-2.12-.57-4.23-1-6.32-.2-1-.44-2.09-.68-3.13-.45-1.95-.94-3.9-1.5-5.82-.3-1-.63-2-1-3s-.52-1.8-.84-2.69l-2.17-6-.19.27c-.84-1.93-1.77-3.82-2.74-5.68l.08-.12-.93-1.71c-.33-.6-.66-1.2-1-1.78l-.36-.53q-1.61-2.79-3.39-5.43l-.28-.41q-1.83-2.72-3.83-5.26l-.33-.49c-.34-.44-.69-.86-1-1.27l-.36-.42c-.52-.63-1.06-1.25-1.6-1.87l-1.07-1.24-.42-.4A96.54,96.54,0,0,0,412.76,98l-.47-.45-.4-.28c-1.75-1.44-3.56-2.82-5.4-4.13l0-.07-2.7-1.79c-.53-.34-1.08-.64-1.61-1l-1-.66-.49-.34-.07,0s0,0,0,0c-.56-.34-1.12-.68-1.69-1h0l-.37-.18-1.8-1-.51-.26-.18-.09c-.26-.14-.51-.3-.78-.43l.06-.09L392,84.61l-.28-.12c-.36-.18-.75-.33-1.12-.5l-1.25-.55L388.21,83l-.14-.06c-.69-.29-1.39-.58-2.09-.85l-.28-.14-.29-.09c-.45-.18-.91-.33-1.36-.5q-2.25-.84-4.53-1.56l-.52-.16-1-.32c-.89-.27-1.8-.52-2.7-.76l-.34-.1-.38-.08c-1.43-.37-2.87-.71-4.32-1l-.16,0c-.16,0-.33,0-.49-.09-1.49-.29-3-.56-4.49-.79L364,76.24l-1-.13H363l-.37-.07-1.05-.13-.74-.08-.47,0h0l-.23,0-2.41-.2h-.22l-.28,0h-.28l-.65,0-.62,0h-.23c-.72,0-1.45-.07-2.2-.09h-.52c-.75,0-1.5,0-2.26,0-2.09,0-4.18.09-6.25.21l-1.52.12c-.13,0-.25,0-.38,0L315.7,60a1.08,1.08,0,0,1-.25-1.66Zm-8.69,246-4-.7c-2.46-.24-4.9-.58-7.3-1V215.74l-60-88.93c1.41-2.32,2.91-4.59,4.54-6.79a90.8,90.8,0,0,1,22.4-21.4l51.22,77.19L401.94,100a89.05,89.05,0,0,1,25.95,29.21L369,217.42l-.55.81V260l-1,.2-16.9,2.44-2.82-.05c-.7-.07-1.39-.12-2.09-.14l-.5-.11A.63.63,0,0,0,344.82,262.3ZM317,215.74,266.52,141c1-2.67,2.17-5.28,3.45-7.85l57.08,84.54v41.4A89.36,89.36,0,0,1,317,255.8Zm-6.46,37.18A89.25,89.25,0,0,1,264,148.78l46.55,68.94ZM344.3,83.69l.78-.12,4.82-.51a52.12,52.12,0,0,1,5.59,0,74.73,74.73,0,0,0,9.24.85l-.46-.13a2.14,2.14,0,0,0,.44.08l.21.06h-.19l8.38,2.4a89.47,89.47,0,0,1,11.71,4.07l-33.19,50L317.89,89.53a87.75,87.75,0,0,1,18.67-5,44.44,44.44,0,0,1,6-.71l1.4-.15A.8.8,0,0,0,344.3,83.69Zm7.33,68.37,39.1-58.9q3,1.53,5.82,3.28l-44.92,67.68-45.71-68.9c1.94-1.1,3.91-2.15,5.93-3.11Zm32.74,62.87-.56.81v39.61a90.18,90.18,0,0,1-8.93,3V220.19l56.34-84.31c.89,2,1.7,4,2.45,6Zm51.76-65.13a91.35,91.35,0,0,1,1.92,9.25c6.16,39.64-13.92,76.61-47.77,93.41V217.72Zm-77.9,176.93-1.32-9.29a1.08,1.08,0,0,0-1-.92l-2.64-.27h-.12C281.52,318,219.1,265.49,208.11,194.54,196.4,116.47,250.33,43,328.4,31h0a1.08,1.08,0,0,1,.85,1.8l-24.47,27a1.08,1.08,0,0,0,.25,1.66l25.47,14.9a1.05,1.05,0,0,1,.53.87l-.19,0c-2.36.48-4.7,1.06-7,1.72l-.8.23-1.75.53c-1.17.37-2.34.77-3.49,1.18l-1.22.44-2.23.86q-1.16.47-2.31,1c-.42.18-.84.34-1.26.53l-3.48,1.55.07.12-.63.31c-1.27.64-2.53,1.31-3.77,2-1.42.79-2.84,1.58-4.23,2.45L296,91.91l0,0a98.42,98.42,0,0,0-14.24,11.75,0,0,0,0,1,0,0h0l-.82.83c-.55.55-1.08,1.11-1.69,1.77l-.79.92c-.81.89-1.59,1.8-2.36,2.72-.4.47-.81.93-1.2,1.41l-.4.46,0,0h0c-.14.18-.28.34-.42.51l0,0-.58.77-.55.72-1,1.35,0,0-.31.44-.05,0-.39.54,0,0c-.11.16-.22.31-.32.47l-.05,0-.56.86c-.41.59-.82,1.18-1.21,1.79s-.64,1-1,1.55l-1,1.57,0,0-.31.53,0,0-.69,1.19s0,0,0,0l-.07.11-.94,1.63,0,0c-1.35,2.46-2.54,5-3.66,7.54l-.16-.25-2.17,6c-.25.7-.42,1.41-.67,2.12-.5,1.5-1,3-1.42,4.53s-.76,3-1.11,4.45-.65,2.72-.9,4.11c-.35,1.83-.59,3.69-.82,5.55-.15,1.09-.33,2.17-.43,3.28-.28,3-.45,6-.45,9.07A96.46,96.46,0,0,0,281.75,241q3.38,3.36,7,6.36c1.34,1.11,2.76,2.09,4.15,3.11,1.11.82,2.18,1.69,3.31,2.46,2.1,1.42,4.27,2.68,6.46,3.92.49.28.95.6,1.45.87,2.37,1.29,4.81,2.43,7.28,3.52.36.15.68.35,1.05.5l.2.08.94.41,3.36,1.42v-.23a96.21,96.21,0,0,0,10.08,3.08v.13l.05,0h0l2.56.54.11,0c.26.07.54.1.81.16.58.12,1.16.22,1.75.33q2.51.46,5,.81l.88.15v0l.61.08v0l.32,0,1.24.14c.35,0,.72.06,1.08.09,3,.27,5.92.43,8.9.43.82,0,1.65,0,2.63,0h0v0c.81,0,1.62,0,2.42-.08v0l.4,0,.26,0c.57,0,1.12-.06,1.78-.12s1.53-.12,2.46-.21l.68-.09c.57-.06,1.14-.15,1.71-.23l2.46-.31,1-.16,29.55,17.65a1.07,1.07,0,0,1,.25,1.65L360.11,327.3A1.09,1.09,0,0,1,358.23,326.73Z"/><text class="cls-2" transform="translate(0 438.38)">Y<tspan class="cls-3" x="86.22" y="0">ENI</tspan><tspan class="cls-4" x="276.72" y="0">K</tspan><tspan class="cls-5" x="357.38" y="0">A</tspan><tspan class="cls-6" x="451.3" y="0">R</tspan><tspan class="cls-7" x="529.68" y="0">GO</tspan></text></g></g></svg>