<svg xmlns="http://www.w3.org/2000/svg" viewBox="0 0 729.62 244.8"><defs><style>.cls-1,.cls-2{fill:#fff;}.cls-2{font-size:90.24px;font-family:Kanit-Bold, Kanit;font-weight:700;}.cls-3{letter-spacing:-0.02em;}.cls-4{letter-spacing:-0.04em;}.cls-5{letter-spacing:-0.01em;}.cls-6{letter-spacing:0em;}</style></defs><g id="Layer_2" data-name="Layer 2"><g id="Layer_1-2" data-name="Layer 1"><path class="cls-1" d="M111.27,244.55,125,229.48a.8.8,0,0,1,.44-.24c57.61-9.49,97.24-64.12,88.64-122-7.57-48.43-47.79-86.31-96.16-90.87a.77.77,0,0,1-.68-.66L115,.66a.78.78,0,0,0-1.34-.41L99.49,15.8a.8.8,0,0,1-.5.25l-7.53.73h0A107.66,107.66,0,0,0,0,122.91a116.57,116.57,0,0,0,1.27,16.21c8.07,52.71,53.31,91.62,106,91.69a.76.76,0,0,1,.76.65l1.94,12.69A.77.77,0,0,0,111.27,244.55ZM110.12,11.63a.77.77,0,0,1,1.34.39l1.41,8.5a.78.78,0,0,0,.67.63l1.45.19c47.37,3.29,86.88,39.76,94,86.88,8,52.33-25.49,101.48-75.54,114.63a.78.78,0,0,1-.78-1.27l15.92-17.68a.77.77,0,0,0-.18-1.18l-20.48-12.3a.75.75,0,0,1-.23-1.09c1.38-.42,2.74-.85,4.08-1.35v.2l3.21-1.36c2-.85,3.92-1.81,5.8-2.83l.38-.21q2.79-1.53,5.4-3.28l.12-.08a69.07,69.07,0,0,0,24.85-30c.13-.29.26-.59.38-.88.78-1.89,1.5-3.81,2.11-5.77,0-.07.05-.15.08-.22.62-2,1.13-4,1.57-6.09.11-.51.19-1,.29-1.53.29-1.57.54-3.17.73-4.77.07-.6.14-1.2.2-1.8.19-2.09.32-4.2.32-6.34s-.13-4.44-.34-6.63c-.07-.68-.18-1.34-.26-2-.19-1.51-.41-3-.69-4.51-.15-.75-.32-1.49-.49-2.23-.32-1.4-.67-2.79-1.07-4.16-.22-.73-.45-1.45-.69-2.17s-.37-1.28-.6-1.92l-1.55-4.26-.13.2c-.61-1.38-1.27-2.72-2-4l.06-.09L168.81,90c-.24-.43-.48-.86-.72-1.27l-.26-.38c-.76-1.33-1.57-2.62-2.41-3.87l-.2-.3c-.87-1.29-1.79-2.54-2.74-3.75l-.23-.35c-.25-.32-.5-.62-.74-.91l-.26-.3c-.37-.45-.76-.89-1.14-1.33l-.76-.89-.3-.29A71,71,0,0,0,152.42,70l-.34-.32-.28-.2c-1.26-1-2.54-2-3.86-3l0,0L146,65.17c-.37-.25-.77-.46-1.15-.7s-.48-.32-.73-.47l-.35-.24,0,0h0c-.4-.24-.8-.48-1.21-.71h0l-.26-.13c-.43-.24-.85-.48-1.29-.71l-.36-.19-.13-.06-.55-.31,0-.06-2.41-1.14a1.11,1.11,0,0,0-.19-.09c-.27-.13-.54-.24-.81-.36l-.89-.39-.79-.35-.1,0c-.49-.21-1-.42-1.49-.61l-.2-.1-.21-.07-1-.35c-1.07-.4-2.15-.77-3.23-1.11l-.37-.12-.74-.23c-.64-.19-1.29-.36-1.94-.54L125.4,56l-.27-.06c-1-.26-2-.5-3.08-.72l-.11,0-.35-.07c-1.06-.21-2.13-.4-3.21-.56l-.77-.12-.72-.09h0l-.26,0q-.36-.06-.75-.09l-.53-.06-.34,0h0l-.17,0-1.71-.14h-.56l-.46,0-.45,0h-.16l-1.57-.07h-.37l-1.61,0c-1.5,0-3,.07-4.47.16l-1.08.08-.28,0L83.14,42.84A.77.77,0,0,1,83,41.66Zm-6.2,175.6-2.86-.5c-1.76-.17-3.49-.41-5.21-.73V154L53,90.52q1.5-2.49,3.24-4.85a64.94,64.94,0,0,1,16-15.28l36.56,55.1,35.91-54.1a63.7,63.7,0,0,1,18.53,20.85l-42.07,63-.39.58v29.8l-.7.14L108,187.46l-2,0c-.49-.06-1-.09-1.49-.11a2,2,0,0,1-.35-.08A.55.55,0,0,0,103.92,187.23ZM84,154,48,100.67q1.09-2.85,2.46-5.6l40.75,60.34V185a61.25,61.25,0,0,1-7.2-2.37Zm-4.61,26.54A63.71,63.71,0,0,1,46.2,106.2l33.23,49.21Zm24.12-120.8.55-.09,3.45-.36a37.93,37.93,0,0,1,4,0,54.51,54.51,0,0,0,6.59.61l-.33-.1a1.65,1.65,0,0,0,.32.06.83.83,0,0,0,.15,0h-.14l6,1.71a64.94,64.94,0,0,1,8.36,2.9L108.78,100.2,84.7,63.9A63.36,63.36,0,0,1,98,60.34a32.86,32.86,0,0,1,4.31-.5l1-.11A.53.53,0,0,0,103.55,59.74Zm5.23,48.8,27.91-42q2.13,1.09,4.16,2.34l-32.07,48.31L76.15,68c1.38-.79,2.79-1.54,4.23-2.22Zm23.37,44.88-.4.58v28.27a63.65,63.65,0,0,1-6.37,2.18V157.17L165.59,97q1,2.12,1.75,4.31Zm36.95-46.49a65.39,65.39,0,0,1,1.36,6.6,63,63,0,0,1-34.09,66.68v-24.8ZM113.49,233.22l-.94-6.63a.79.79,0,0,0-.69-.66l-1.89-.18h-.09C58.74,227,14.18,189.51,6.33,138.86-2,83.14,36.47,30.71,92.2,22.1h0a.77.77,0,0,1,.61,1.29L75.36,42.67a.77.77,0,0,0,.18,1.18L93.72,54.49a.79.79,0,0,1,.38.63l-.14,0c-1.69.34-3.35.76-5,1.23l-.57.17-1.25.37c-.84.26-1.67.55-2.49.85l-.87.31-1.59.61-1.65.69c-.3.13-.61.24-.9.37l-2.49,1.12.06.08-.45.22c-.91.46-1.81.93-2.7,1.43s-2,1.13-3,1.75L69,65.6l0,0A70.19,70.19,0,0,0,58.9,74h0l-.59.6L57.1,75.9l-.57.66c-.57.63-1.13,1.28-1.68,1.94-.29.33-.58.66-.86,1l-.28.32,0,0h0c-.09.12-.2.24-.3.36h0l-.42.55-.38.51-.73,1,0,0-.23.31h0l-.28.38,0,0c-.08.12-.16.22-.23.34h0l-.41.61c-.29.42-.58.84-.86,1.27s-.46.75-.69,1.12l-.72,1.11,0,0c-.07.13-.15.25-.22.37h0l-.49.85s0,0,0,0l0,.07L47,89.9l0,0c-1,1.75-1.81,3.55-2.61,5.38l-.12-.18-1.54,4.26c-.18.5-.31,1-.48,1.51-.36,1.08-.71,2.15-1,3.24s-.54,2.11-.79,3.17-.46,2-.64,2.93c-.25,1.32-.42,2.64-.59,4-.1.78-.23,1.55-.31,2.34-.2,2.15-.31,4.3-.31,6.47A68.86,68.86,0,0,0,58.9,172q2.41,2.4,5,4.54c1,.79,2,1.49,3,2.22.79.59,1.55,1.21,2.36,1.76,1.5,1,3.05,1.91,4.61,2.8.36.19.68.42,1,.62,1.69.92,3.43,1.73,5.19,2.51.26.11.49.25.75.35l.15.07.67.28,2.39,1V188a68.72,68.72,0,0,0,7.2,2.19v.1h0l1.82.39h.08l.58.11c.41.09.83.16,1.25.24,1.19.22,2.38.41,3.58.57l.63.11v0l.44.06h0l.23,0,.88.1c.25,0,.51,0,.77.06,2.11.19,4.23.31,6.36.31l1.87,0h0v0c.58,0,1.15,0,1.72-.05v0l.29,0H112l1.27-.09L115,192l.49-.06,1.22-.16,1.75-.23.71-.11L140.28,204a.77.77,0,0,1,.17,1.18l-25.62,28.47A.77.77,0,0,1,113.49,233.22Z"/><text class="cls-2" transform="translate(228.9 144.47)"><tspan class="cls-3">Y</tspan><tspan x="61.54" y="0">ENI</tspan><tspan class="cls-4" x="197.53" y="0">K</tspan><tspan x="255.1" y="0">A</tspan><tspan class="cls-5" x="322.14" y="0">R</tspan><tspan class="cls-6" x="378.09" y="0">GO</tspan></text></g></g></svg>